STARTFONT 2.1
COMMENT Recovered from mouse.kst (MIT CADR PDP-10 interchange font source (KST))
FONT MIT-CADR-MOUSE
SIZE 16 72 72
FONTBOUNDINGBOX 16 16 0 0
STARTPROPERTIES 2
FONT_ASCENT 16
FONT_DESCENT 0
ENDPROPERTIES
CHARS 23
STARTCHAR C0000
ENCODING -1 0
SWIDTH 1000 0
DWIDTH 16 0
BBX 9 16 0 0
BITMAP
0800
1C00
3E00
7F00
FF80
1C00
1C00
1C00
1C00
1C00
1C00
1C00
1C00
1C00
1C00
0000
ENDCHAR
STARTCHAR C0001
ENCODING -1 1
SWIDTH 1000 0
DWIDTH 16 0
BBX 16 16 0 0
BITMAP
0000
0010
0018
001C
FFFE
FFFF
FFFE
001C
0018
0010
0000
0000
0000
0000
0000
0000
ENDCHAR
STARTCHAR C0002
ENCODING -1 2
SWIDTH 1000 0
DWIDTH 16 0
BBX 9 16 0 0
BITMAP
0000
1C00
1C00
1C00
1C00
1C00
1C00
1C00
1C00
1C00
FF80
7F00
3E00
1C00
0800
0000
ENDCHAR
STARTCHAR C0003
ENCODING -1 3
SWIDTH 1000 0
DWIDTH 16 0
BBX 16 16 0 0
BITMAP
0000
0800
1800
3800
7FFF
FFFF
7FFF
3800
1800
0800
0000
0000
0000
0000
0000
0000
ENDCHAR
STARTCHAR C0004
ENCODING -1 4
SWIDTH 1000 0
DWIDTH 16 0
BBX 9 16 0 0
BITMAP
0800
1C00
3E00
7F00
FF80
1C00
1C00
1C00
1C00
1C00
FF80
7F00
3E00
1C00
0800
0000
ENDCHAR
STARTCHAR C0005
ENCODING -1 5
SWIDTH 1000 0
DWIDTH 16 0
BBX 16 16 0 0
BITMAP
0000
0810
1818
381C
7FFE
FFFF
7FFE
381C
1818
0810
0000
0000
0000
0000
0000
0000
ENDCHAR
STARTCHAR C0006
ENCODING -1 6
SWIDTH 1000 0
DWIDTH 16 0
BBX 8 16 0 0
BITMAP
80
C0
E0
F0
F8
FC
FE
F0
D8
98
0C
0C
06
06
03
03
ENDCHAR
STARTCHAR C0007
ENCODING -1 7
SWIDTH 1000 0
DWIDTH 16 0
BBX 9 16 0 0
BITMAP
0000
8080
4100
2200
1400
0800
1400
2200
4100
8080
0000
0000
0000
0000
0000
0000
ENDCHAR
STARTCHAR C0008
ENCODING -1 8
SWIDTH 1000 0
DWIDTH 16 0
BBX 14 16 0 0
BITMAP
0300
0780
0FC0
1FE0
3FF0
7FF8
FFFC
1FE0
1FE0
1FE0
1FE0
1FE0
1FE0
1FE0
1FE0
1FE0
ENDCHAR
STARTCHAR C0009
ENCODING -1 9
SWIDTH 1000 0
DWIDTH 16 0
BBX 16 16 0 0
BITMAP
0000
0040
0060
0070
FFF8
FFFC
FFFE
FFFF
FFFF
FFFE
FFFC
FFF8
0070
0060
0040
0000
ENDCHAR
STARTCHAR C000A
ENCODING -1 10
SWIDTH 1000 0
DWIDTH 16 0
BBX 14 16 0 0
BITMAP
1FE0
1FE0
1FE0
1FE0
1FE0
1FE0
1FE0
1FE0
FFFC
7FF8
3FF0
1FE0
0FC0
0780
0300
0000
ENDCHAR
STARTCHAR C000B
ENCODING -1 11
SWIDTH 1000 0
DWIDTH 16 0
BBX 16 16 0 0
BITMAP
0000
0200
0600
0E00
1FFF
3FFF
7FFF
FFFF
FFFF
7FFF
3FFF
1FFF
0E00
0600
0200
0000
ENDCHAR
STARTCHAR C000C
ENCODING -1 12
SWIDTH 1000 0
DWIDTH 16 0
BBX 12 16 0 0
BITMAP
0600
0F00
1F80
3FC0
7FE0
FFF0
1F80
1F80
1F80
1F80
FFF0
7FE0
3FC0
1F80
0F00
0600
ENDCHAR
STARTCHAR C0010
ENCODING -1 16
SWIDTH 1000 0
DWIDTH 16 0
BBX 9 16 0 0
BITMAP
0000
7F80
8280
8280
8280
7E80
0280
0280
0280
0280
0280
0280
0280
1F80
0000
0000
ENDCHAR
STARTCHAR C0011
ENCODING -1 17
SWIDTH 1000 0
DWIDTH 16 0
BBX 12 16 0 0
BITMAP
FFF0
FFF0
C000
C000
C000
C000
C000
C000
C000
C000
C000
C000
0000
0000
0000
0000
ENDCHAR
STARTCHAR C0012
ENCODING -1 18
SWIDTH 1000 0
DWIDTH 16 0
BBX 12 16 0 0
BITMAP
0030
0030
0030
0030
0030
0030
0030
0030
0030
0030
FFF0
FFF0
0000
0000
0000
0000
ENDCHAR
STARTCHAR C0013
ENCODING -1 19
SWIDTH 1000 0
DWIDTH 16 0
BBX 13 16 0 0
BITMAP
FFF8
8008
E038
78F0
3DE0
1FC0
0F80
0700
0F80
1AC0
3260
6730
CF98
9FC8
FFF8
0000
ENDCHAR
STARTCHAR C0014
ENCODING -1 20
SWIDTH 1000 0
DWIDTH 16 0
BBX 12 16 0 0
BITMAP
0000
0000
0F00
3FC0
76E0
6660
C630
FFF0
FFF0
C630
6660
76E0
3FC0
0F00
0000
0000
ENDCHAR
STARTCHAR C0015
ENCODING -1 21
SWIDTH 1000 0
DWIDTH 16 0
BBX 13 16 0 0
BITMAP
00C0
00C0
00C0
00C0
00C0
00C0
0000
07F8
07F8
0000
07F8
07F8
0FF0
1FE0
3FC0
FF00
ENDCHAR
STARTCHAR C0016
ENCODING -1 22
SWIDTH 1000 0
DWIDTH 16 0
BBX 12 16 0 0
BITMAP
8010
C030
C030
E070
70E0
39C0
39C0
1980
1980
0600
0600
7FE0
4920
4920
50A0
70E0
ENDCHAR
STARTCHAR C0017
ENCODING -1 23
SWIDTH 1000 0
DWIDTH 16 0
BBX 10 16 0 0
BITMAP
0C00
0C00
EDC0
AD40
6D80
CCC0
8C40
CCC0
6D80
3F00
0C00
0C00
0C00
0C00
0C00
0C00
ENDCHAR
STARTCHAR C0019
ENCODING -1 25
SWIDTH 500 0
DWIDTH 8 0
BBX 8 16 0 0
BITMAP
01
03
07
0F
1F
3F
7F
0F
1B
19
30
30
60
60
C0
C0
ENDCHAR
STARTCHAR C001A
ENCODING -1 26
SWIDTH 1000 0
DWIDTH 16 0
BBX 12 16 0 0
BITMAP
0000
0000
0F00
3FC0
70E0
70E0
D9B0
CF30
CF30
D9B0
70E0
70E0
3FC0
0F00
0000
0000
ENDCHAR
ENDFONT
